<?xml version="1.0" standalone="no"?>
<!DOCTYPE svg PUBLIC "-//W3C//DTD SVG 20010904//EN"
 "http://www.w3.org/TR/2001/REC-SVG-20010904/DTD/svg10.dtd">
<svg version="1.0" xmlns="http://www.w3.org/2000/svg"
 width="610.000000pt" height="610.000000pt" viewBox="0 0 610.000000 610.000000"
 preserveAspectRatio="xMidYMid meet">

	<g transform="translate(0.000000,610.000000) scale(0.100000,-0.100000)"
	fill="#ff671b" stroke="none">
		<path d="M0 3050 l0 -3050 3050 0 3050 0 0 3050 0 3050 -3050 0 -3050 0 0
-3050z m4730 49 l0 -2331 -27 6 c-16 3 -795 130 -1733 281 -938 151 -1717 278
-1733 281 l-27 6 0 1759 c0 967 1 1759 3 1760 11 3 3486 567 3500 568 16 1 17
-116 17 -2330z"/>
		<path d="M2955 4800 c-770 -126 -1401 -229 -1402 -229 -2 -1 -3 -662 -3 -1470
l0 -1469 27 -6 c16 -3 642 -105 1393 -226 751 -121 1377 -223 1393 -226 l27
-6 0 1931 c0 1833 -1 1931 -17 1930 -10 -1 -648 -104 -1418 -229z m1139 -312
c-5 -7 -232 -296 -506 -641 -275 -345 -501 -633 -503 -640 -3 -7 225 -320 506
-696 280 -376 507 -686 504 -689 -5 -5 -654 113 -659 120 -2 2 -148 211 -326
466 -178 254 -326 462 -329 462 -4 0 -106 -146 -226 -325 -204 -303 -221 -325
-245 -321 -14 3 -126 17 -250 32 -124 14 -227 28 -229 30 -2 1 146 208 328
459 l332 457 -113 156 c-62 87 -197 274 -300 417 -103 142 -185 261 -183 264
9 9 490 78 495 71 3 -4 92 -141 199 -304 107 -163 198 -293 203 -288 5 5 145
197 312 428 l303 419 334 67 c374 74 363 73 353 56z"/>
	</g>
</svg>
